<?xml version="1.0" encoding="UTF-8"?>
<svg width="428px" height="58px" viewBox="0 0 428 58" version="1.1" xmlns="http://www.w3.org/2000/svg" xmlns:xlink="http://www.w3.org/1999/xlink">
    <!-- Generator: Sketch 54.1 (76490) - https://sketchapp.com -->
    <title>Group 24</title>
    <desc>Created with Sketch.</desc>
    <defs>
        <polygon id="path-1" points="0 0.9807 13.4399 0.9807 13.4399 42.9807 0 42.9807"></polygon>
        <polygon id="path-3" points="0 57.12 427.191 57.12 427.191 0 0 0"></polygon>
    </defs>
    <g id="Page-1" stroke="none" stroke-width="1" fill="none" fill-rule="evenodd">
        <g id="Desktop-HD-Copy-10" transform="translate(-506.000000, -43.000000)">
            <g id="Group-24" transform="translate(506.000000, 43.000000)">
                <g id="Group-3" transform="translate(0.000000, 7.120100)">
                    <mask id="mask-2" fill="white">
                        <use xlink:href="#path-1"></use>
                    </mask>
                    <g id="Clip-2"></g>
                    <path d="M7.4399,9.6807 L7.4399,6.9807 L5.9999,6.9807 L5.9999,8.7807 L5.9999,34.9407 L5.9999,36.7407 L7.4399,36.7407 L7.4399,34.0397 L7.4399,9.6807 Z M8.9399,0.9807 C10.2199,0.9807 11.2899,1.4097 12.1499,2.2707 C13.0099,3.1307 13.4399,4.2007 13.4399,5.4807 L13.4399,6.9807 L13.4399,36.7407 L13.4399,38.2407 C13.4399,39.5207 13.0099,40.6307 12.1499,41.5707 C11.2899,42.5107 10.2199,42.9807 8.9399,42.9807 L7.4399,42.9807 L5.9999,42.9807 L0.7799,42.9807 L-0.0001,42.9807 L-0.0001,6.9807 L-0.0001,0.9807 L5.9999,0.9807 L7.4399,0.9807 L8.9399,0.9807 Z" id="Fill-1" fill="#2A2A2A" mask="url(#mask-2)"></path>
                </g>
                <polygon id="Fill-4" fill="#2A2A2A" points="31.4399 14.3408 31.4399 24.7208 36.4799 24.7208 36.4799 30.7208 31.4399 30.7208 31.4399 44.1008 38.8799 44.1008 38.8799 50.1008 31.4399 50.1008 26.2199 50.1008 25.4399 50.1008 25.4399 30.7208 25.4399 24.7208 25.4399 14.3408 25.4399 7.9808 31.4399 7.9808 38.8799 7.9808 38.8799 14.3408"></polygon>
                <path d="M55.2896,14.6699 C55.0696,14.8909 54.9986,15.1609 55.0796,15.4809 L60.4196,45.1809 C60.5396,45.8199 60.5186,46.4409 60.3596,47.0399 C60.1996,47.6409 59.9396,48.1609 59.5796,48.6009 C59.2196,49.0409 58.7596,49.4009 58.1996,49.6809 C57.6386,49.9609 57.0396,50.1009 56.3996,50.1009 L55.3196,50.1009 L47.7596,50.1009 L47.7596,44.1009 L53.0996,44.1009 C53.3786,44.1009 53.6186,43.9899 53.8196,43.7709 C54.0186,43.5509 54.0796,43.2809 53.9996,42.9599 L48.5996,13.2609 C48.4796,12.6209 48.5096,11.9909 48.6896,11.3699 C48.8696,10.7509 49.1486,10.1999 49.5296,9.7209 C49.9096,9.2399 50.3696,8.8599 50.9096,8.5799 C51.4496,8.3009 52.0396,8.1599 52.6796,8.1599 L53.8196,8.1599 L61.1996,8.1599 L61.1996,14.3409 L56.0396,14.3409 C55.7596,14.3409 55.5086,14.4509 55.2896,14.6699" id="Fill-6" fill="#2A2A2A"></path>
                <mask id="mask-4" fill="white">
                    <use xlink:href="#path-3"></use>
                </mask>
                <g id="Clip-9"></g>
                <polygon id="Fill-8" fill="#2A2A2A" mask="url(#mask-4)" points="71.159 50.1001 77.159 50.1001 77.159 8.1601 71.159 8.1601"></polygon>
                <path d="M99.5977,8.7607 C100.0377,9.2007 100.2577,9.7407 100.2577,10.3797 L100.2577,14.1007 L100.2577,18.5397 L94.2577,18.5397 L94.2577,15.9007 L94.2577,14.1007 L92.8177,14.1007 L92.8177,16.8007 L92.8177,41.4007 L92.8177,44.1007 L94.2577,44.1007 L94.2577,42.3007 L94.2577,30.7207 L93.5377,30.7207 L93.5377,24.7207 L94.2577,24.7207 L98.0377,24.7207 C98.6377,24.7207 99.1577,24.9407 99.5977,25.3797 C100.0377,25.8217 100.2577,26.3617 100.2577,26.9997 L100.2577,30.7207 L100.2577,44.1007 L100.2577,47.8797 C100.2577,48.4807 100.0377,49.0007 99.5977,49.4407 C99.1577,49.8807 98.6377,50.1007 98.0377,50.1007 L94.2577,50.1007 L92.8177,50.1007 L91.3177,50.1007 C90.0367,50.1007 88.9677,49.6707 88.1077,48.8107 C87.2467,47.9497 86.8177,46.8807 86.8177,45.6007 L86.8177,14.1007 L86.8177,12.6007 C86.8177,11.3207 87.2467,10.2507 88.1077,9.3907 C88.9677,8.5307 90.0367,8.1007 91.3177,8.1007 L92.8177,8.1007 L94.2577,8.1007 L98.0377,8.1007 C98.6377,8.1007 99.1577,8.3207 99.5977,8.7607" id="Fill-10" fill="#2A2A2A" mask="url(#mask-4)"></path>
                <polygon id="Fill-11" fill="#2A2A2A" mask="url(#mask-4)" points="123.3579 8.1601 123.3579 50.1001 119.6379 50.1001 118.3179 50.1001 118.1379 50.1001 115.1379 27.5401 115.9179 50.1001 109.9179 50.1001 109.9179 8.1601 113.6379 8.1601 115.1379 8.1601 118.1379 33.5401 117.3579 8.1601"></polygon>
                <polygon id="Fill-12" fill="#2A2A2A" mask="url(#mask-4)" points="138.8979 14.3408 138.8979 24.7208 143.9379 24.7208 143.9379 30.7208 138.8979 30.7208 138.8979 44.1008 146.3379 44.1008 146.3379 50.1008 138.8979 50.1008 133.6779 50.1008 132.8979 50.1008 132.8979 30.7208 132.8979 24.7208 132.8979 14.3408 132.8979 7.9808 138.8979 7.9808 146.3379 7.9808 146.3379 14.3408"></polygon>
                <path d="M162.8975,15.9004 L162.8975,14.1004 L161.4575,14.1004 L161.4575,14.5804 L161.4575,24.7204 L162.8975,24.7204 L162.8975,15.9004 Z M169.1375,50.1004 L163.0775,50.1004 L161.4575,33.1804 L161.4575,50.1004 L155.4575,50.1004 L155.4575,14.1004 L155.4575,8.1004 L161.4575,8.1004 L162.8975,8.1004 L164.8365,8.1004 C165.9675,8.1004 166.9275,8.5014 167.7155,9.3004 C168.5025,10.1004 168.8975,11.0604 168.8975,12.1804 L168.8975,14.1004 L168.8975,24.7204 L168.8975,28.5604 C168.8975,29.0814 168.7475,29.5204 168.4475,29.8794 C168.1475,30.2404 167.7775,30.5204 167.3375,30.7204 L167.2775,30.7204 C167.2375,30.7204 167.2175,30.7304 167.2175,30.7504 C167.2175,30.7704 167.1965,30.7804 167.1575,30.7804 L169.1375,50.1004 Z" id="Fill-13" fill="#2A2A2A" mask="url(#mask-4)"></path>
                <path d="M185.7876,14.6699 C185.5676,14.8909 185.4966,15.1609 185.5776,15.4809 L190.9176,45.1809 C191.0376,45.8199 191.0166,46.4409 190.8576,47.0399 C190.6976,47.6409 190.4376,48.1609 190.0776,48.6009 C189.7176,49.0409 189.2576,49.4009 188.6976,49.6809 C188.1366,49.9609 187.5376,50.1009 186.8976,50.1009 L185.8176,50.1009 L178.2576,50.1009 L178.2576,44.1009 L183.5976,44.1009 C183.8766,44.1009 184.1166,43.9899 184.3176,43.7709 C184.5166,43.5509 184.5776,43.2809 184.4976,42.9599 L179.0976,13.2609 C178.9776,12.6209 179.0076,11.9909 179.1876,11.3699 C179.3676,10.7509 179.6466,10.1999 180.0276,9.7209 C180.4076,9.2399 180.8676,8.8599 181.4076,8.5799 C181.9476,8.3009 182.5376,8.1599 183.1776,8.1599 L184.3176,8.1599 L191.6976,8.1599 L191.6976,14.3409 L186.5376,14.3409 C186.2576,14.3409 186.0066,14.4509 185.7876,14.6699" id="Fill-14" fill="#2A2A2A" mask="url(#mask-4)"></path>
                <path d="M226.6758,14.4004 L225.2358,14.4004 L225.2358,16.2004 L225.2358,17.1004 L225.2358,41.4604 L225.2358,42.3604 L225.2358,44.1604 L226.6758,44.1604 L226.6758,42.3604 L226.6758,41.4604 L226.6758,17.1004 L226.6758,16.2004 L226.6758,14.4004 Z M228.1758,7.9804 C229.4558,7.9804 230.5258,8.4814 231.3858,9.4804 C232.2458,10.4804 232.6758,11.6214 232.6758,12.9004 L232.6758,14.4004 L232.6758,44.1604 L232.6758,45.6604 C232.6758,46.9414 232.2458,48.0104 231.3858,48.8704 C230.5258,49.7314 229.4558,50.1604 228.1758,50.1604 L226.6758,50.1604 L225.2358,50.1604 L223.7358,50.1604 C222.4548,50.1604 221.3858,49.7314 220.5258,48.8704 C219.6648,48.0104 219.2358,46.9414 219.2358,45.6604 L219.2358,14.4004 L219.2358,12.9004 C219.2358,11.6214 219.6648,10.4804 220.5258,9.4804 C221.3858,8.4814 222.4548,7.9804 223.7358,7.9804 L225.2358,7.9804 L226.6758,7.9804 L228.1758,7.9804 Z" id="Fill-15" fill="#2A2A2A" mask="url(#mask-4)"></path>
                <polygon id="Fill-16" fill="#2A2A2A" mask="url(#mask-4)" points="255.6553 8.04 255.6553 14.04 255.6553 18.48 249.6553 18.48 249.6553 14.04 248.2153 14.04 248.2153 24.42 255.6553 24.42 255.6553 30.42 248.2153 30.42 248.2153 50.101 242.2153 50.101 242.2153 14.04 242.2153 8.04 248.2153 8.04 249.6553 8.04"></polygon>
                <polygon id="Fill-17" fill="#2A2A2A" mask="url(#mask-4)" points="295.7949 8.1006 295.7949 50.1006 289.8549 50.1006 289.7349 50.1006 282.2349 8.1006 288.2949 8.1006 291.1749 32.2206 289.8549 8.1006"></polygon>
                <polygon id="Fill-18" fill="#2A2A2A" mask="url(#mask-4)" points="304.194 50.1001 310.194 50.1001 310.194 8.1601 304.194 8.1601"></polygon>
                <path d="M323.2734,54.0908 C323.2734,53.2818 323.5654,52.5848 324.1514,51.9998 C324.7374,51.4128 325.4354,51.1198 326.2434,51.1198 C327.0904,51.1198 327.8084,51.4128 328.3944,51.9998 C328.9804,52.5848 329.2734,53.2818 329.2734,54.0908 C329.2734,54.9378 328.9804,55.6548 328.3944,56.2418 C327.8084,56.8268 327.0904,57.1198 326.2434,57.1198 C325.4354,57.1198 324.7374,56.8268 324.1514,56.2418 C323.5654,55.6548 323.2734,54.9378 323.2734,54.0908 L323.2734,54.0908 Z M325.8534,14.3408 L325.8534,24.7208 L330.8934,24.7208 L330.8934,30.7208 L325.8534,30.7208 L325.8534,44.1008 L333.2934,44.1008 L333.2934,50.1008 L325.8534,50.1008 L320.6334,50.1008 L319.8534,50.1008 L319.8534,30.7208 L319.8534,24.7208 L319.8534,14.3408 L319.8534,7.9808 L325.8534,7.9808 L333.2934,7.9808 L333.2934,14.3408 L325.8534,14.3408 Z M344.2734,6.6598 L326.2134,2.4008 L308.1534,6.6598 L308.1534,4.2608 L326.2134,-0.0002 C327.2534,0.2798 328.2034,0.5208 329.0634,0.7208 C329.9234,0.9208 330.8934,1.1408 331.9734,1.3798 C333.0534,1.6198 334.1534,1.8808 335.2734,2.1598 C337.9134,2.8008 340.9134,3.5008 344.2734,4.2608 L344.2734,6.6598 Z" id="Fill-19" fill="#2A2A2A" mask="url(#mask-4)"></path>
                <polygon id="Fill-20" fill="#2A2A2A" mask="url(#mask-4)" points="355.6133 14.1006 351.8933 14.1006 351.8933 50.1006 345.8933 50.1006 345.8933 14.1006 342.1733 14.1006 342.1733 8.1006 345.8933 8.1006 351.8933 8.1006 355.6133 8.1006"></polygon>
                <polygon id="Fill-21" fill="#2A2A2A" mask="url(#mask-4)" points="378.2925 8.1601 378.2925 50.1001 374.5725 50.1001 373.2525 50.1001 373.0725 50.1001 370.0725 27.5401 370.8525 50.1001 364.8525 50.1001 364.8525 8.1601 368.5725 8.1601 370.0725 8.1601 373.0725 33.5401 372.2925 8.1601"></polygon>
                <path d="M393.892,24.6601 L395.332,24.6601 L395.332,14.1001 L393.892,14.1001 L393.892,24.6601 Z M401.332,8.1001 L401.332,14.1001 L401.332,24.6601 L401.332,30.6601 L401.332,50.0401 L395.332,50.0401 L395.332,30.6601 L393.892,30.6601 L393.892,50.0401 L387.892,50.0401 L387.892,14.1001 L387.892,10.3801 L387.892,8.1001 L390.112,8.1001 L393.892,8.1001 L395.332,8.1001 L399.112,8.1001 L401.332,8.1001 Z" id="Fill-22" fill="#2A2A2A" mask="url(#mask-4)"></path>
                <polygon id="Fill-23" fill="#2A2A2A" mask="url(#mask-4)" points="419.6914 34.9199 418.2514 34.9199 416.7514 29.6999 416.7514 37.9199 416.7514 50.1009 410.7514 50.1009 410.7514 8.1009 415.9714 8.1009 418.9714 23.7609 421.9714 8.1009 427.1914 8.1009 427.1914 50.1009 421.1914 50.1009 421.1914 37.9199 421.1914 29.6999"></polygon>
            </g>
        </g>
    </g>
</svg>